<svg width="450" height="250" viewBox="0 0 450 250" fill="none" xmlns="http://www.w3.org/2000/svg">
<rect width="450" height="250" fill="#1C1616"/>
<path d="M58.636 178.424C58.7 178.112 58.856 177.392 59.104 176.264C59.36 175.136 59.556 174.212 59.692 173.492C59.836 172.764 59.96 172.024 60.064 171.272C60.08 171.224 60.096 171.176 60.112 171.128C60.112 171.096 60.112 171.068 60.112 171.044C60.152 170.876 60.24 170.732 60.376 170.612C60.512 170.492 60.664 170.432 60.832 170.432C63.064 170.392 64.692 170.392 65.716 170.432C65.884 170.44 66.012 170.504 66.1 170.624C66.188 170.744 66.208 170.888 66.16 171.056C66.12 171.224 66.028 171.364 65.884 171.476C65.74 171.588 65.584 171.64 65.416 171.632C64.416 171.592 63.016 171.588 61.216 171.62C61.104 172.372 60.956 173.2 60.772 174.104C61.3 174.104 62.492 174.092 64.348 174.068C64.516 174.068 64.648 174.128 64.744 174.248C64.84 174.36 64.868 174.5 64.828 174.668C64.796 174.828 64.708 174.968 64.564 175.088C64.428 175.208 64.28 175.268 64.12 175.268C62.256 175.292 61.056 175.304 60.52 175.304C60.464 175.568 60.356 176.06 60.196 176.78C60.036 177.492 59.916 178.04 59.836 178.424C59.796 178.592 59.704 178.736 59.56 178.856C59.424 178.968 59.272 179.024 59.104 179.024C58.936 179.024 58.804 178.968 58.708 178.856C58.62 178.736 58.596 178.592 58.636 178.424ZM71.9522 179.012C71.6242 179.012 71.4442 178.836 71.4122 178.484L71.3642 177.92C71.3242 177.584 71.2922 177.24 71.2682 176.888C71.2042 175.888 70.6642 175.388 69.6482 175.388C69.1602 175.388 68.8042 175.396 68.5802 175.412L68.0522 175.46C67.8442 175.484 67.6762 175.488 67.5482 175.472C67.2922 176.792 67.0962 177.764 66.9602 178.388C66.9282 178.58 66.8442 178.728 66.7082 178.832C66.5722 178.936 66.4242 178.988 66.2642 178.988C66.0962 178.988 65.9602 178.932 65.8562 178.82C65.7602 178.7 65.7362 178.536 65.7842 178.328L66.0722 176.948C66.1202 176.724 66.2682 176.024 66.5162 174.848C66.5882 174.488 66.7002 173.916 66.8522 173.132L67.2122 171.32C67.2362 171.184 67.3042 171.06 67.4162 170.948C67.4642 170.836 67.5402 170.74 67.6442 170.66C67.7482 170.58 67.8642 170.532 67.9922 170.516C68.6082 170.428 69.1602 170.384 69.6482 170.384C72.3842 170.384 73.7522 171.104 73.7522 172.544C73.7522 173.096 73.5562 173.592 73.1642 174.032C72.7722 174.464 72.2322 174.772 71.5442 174.956C71.7362 175.012 71.9122 175.136 72.0722 175.328C72.2402 175.52 72.3482 175.752 72.3962 176.024C72.4442 176.304 72.4922 176.648 72.5402 177.056C72.5882 177.456 72.6202 177.824 72.6362 178.16C72.6522 178.424 72.5842 178.632 72.4322 178.784C72.2882 178.936 72.1282 179.012 71.9522 179.012ZM67.8002 174.308C68.0562 174.276 68.3442 174.26 68.6642 174.26L69.1082 174.248C69.3242 174.248 69.4722 174.244 69.5522 174.236C70.1682 174.204 70.7642 174.088 71.3402 173.888C71.7242 173.76 72.0122 173.596 72.2042 173.396C72.4042 173.188 72.5042 172.952 72.5042 172.688C72.5042 172.336 72.2562 172.056 71.7602 171.848C71.2642 171.632 70.5802 171.524 69.7082 171.524C69.2202 171.524 68.7682 171.552 68.3522 171.608L68.2442 172.112L67.8002 174.308ZM77.9383 179.12C77.2823 179.12 76.6863 178.988 76.1503 178.724C75.6223 178.452 75.2023 178.068 74.8903 177.572C74.5783 177.076 74.4223 176.492 74.4223 175.82C74.4223 174.852 74.6543 173.952 75.1183 173.12C75.5823 172.288 76.1863 171.628 76.9303 171.14C77.6743 170.652 78.4423 170.408 79.2343 170.408C79.3063 170.408 79.3863 170.42 79.4743 170.444C79.5703 170.468 79.6343 170.48 79.6663 170.48C80.2183 170.48 80.7343 170.648 81.2143 170.984C81.6943 171.32 82.0743 171.772 82.3543 172.34C82.6423 172.908 82.7863 173.516 82.7863 174.164C82.7863 175.012 82.5663 175.82 82.1263 176.588C81.6863 177.348 81.0943 177.96 80.3503 178.424C79.6063 178.888 78.8023 179.12 77.9383 179.12ZM78.1903 177.992C78.7423 177.992 79.2783 177.824 79.7983 177.488C80.3263 177.152 80.7503 176.704 81.0703 176.144C81.3983 175.576 81.5623 174.968 81.5623 174.32C81.5623 173.896 81.4863 173.492 81.3343 173.108C81.1903 172.724 80.9663 172.404 80.6623 172.148C80.3583 171.884 79.9823 171.728 79.5343 171.68C79.2143 171.648 78.9223 171.632 78.6583 171.632C78.0663 171.76 77.5383 172.028 77.0743 172.436C76.6183 172.844 76.2663 173.328 76.0183 173.888C75.7703 174.448 75.6463 175.008 75.6463 175.568C75.6463 176.384 75.8703 176.992 76.3183 177.392C76.7663 177.792 77.3903 177.992 78.1903 177.992ZM91.7304 178.436C91.6904 178.604 91.5984 178.744 91.4544 178.856C91.3104 178.968 91.1544 179.02 90.9864 179.012C90.8264 179.004 90.7024 178.94 90.6144 178.82C90.5264 178.7 90.5024 178.556 90.5424 178.388C90.6304 178.148 90.8464 177.192 91.1904 175.52C91.5424 173.848 91.7424 172.892 91.7904 172.652C91.0064 173.452 90.0784 174.476 89.0064 175.724C88.8864 175.868 88.7384 175.956 88.5624 175.988C88.3944 176.02 88.2504 175.992 88.1304 175.904C88.1304 175.896 88.1264 175.892 88.1184 175.892C88.0544 175.844 88.0064 175.788 87.9744 175.724C87.7344 175.252 87.3184 174.536 86.7264 173.576L86.1384 172.64C86.0344 173.24 85.9024 173.928 85.7424 174.704C85.6544 175.088 85.5184 175.692 85.3344 176.516C85.1504 177.34 85.0104 177.964 84.9144 178.388C84.8824 178.556 84.7944 178.7 84.6504 178.82C84.5144 178.932 84.3624 178.988 84.1944 178.988C84.0264 178.988 83.8944 178.932 83.7984 178.82C83.7104 178.7 83.6824 178.556 83.7144 178.388C83.8104 177.964 83.9504 177.34 84.1344 176.516C84.3184 175.692 84.4544 175.084 84.5424 174.692C84.8624 173.196 85.0704 171.992 85.1664 171.08C85.1824 170.912 85.2544 170.764 85.3824 170.636C85.5184 170.508 85.6704 170.436 85.8384 170.42C85.9264 170.412 86.0024 170.42 86.0664 170.444C86.2504 170.452 86.3864 170.528 86.4744 170.672L87.8064 172.796C88.1824 173.396 88.4984 173.92 88.7544 174.368C90.1704 172.736 91.3664 171.492 92.3424 170.636C92.3824 170.604 92.4184 170.576 92.4504 170.552C92.6024 170.432 92.7624 170.376 92.9304 170.384C93.0984 170.392 93.2264 170.456 93.3144 170.576C93.4024 170.696 93.4224 170.84 93.3744 171.008C93.1664 171.848 92.8904 173.096 92.5464 174.752C92.2104 176.4 91.9384 177.628 91.7304 178.436ZM99.7738 179C98.7898 179 98.0458 178.8 97.5418 178.4C97.0458 177.992 96.8258 177.38 96.8818 176.564C96.8898 176.356 96.9658 176.184 97.1098 176.048C97.2538 175.912 97.4258 175.844 97.6258 175.844C97.7698 175.844 97.8858 175.88 97.9738 175.952C98.0618 176.016 98.1058 176.112 98.1058 176.24V177.116C98.1058 177.308 98.2578 177.484 98.5618 177.644C98.8578 177.796 99.3138 177.872 99.9298 177.872C100.282 177.872 100.642 177.812 101.01 177.692C101.386 177.572 101.698 177.404 101.946 177.188C102.194 176.964 102.318 176.716 102.318 176.444C102.318 176.268 102.254 176.116 102.126 175.988C101.998 175.86 101.842 175.756 101.658 175.676C101.474 175.588 101.202 175.48 100.842 175.352C100.29 175.168 99.8778 175.024 99.6058 174.92C99.3338 174.808 99.0178 174.664 98.6578 174.488C98.3218 174.32 98.0618 174.092 97.8778 173.804C97.6938 173.516 97.6018 173.196 97.6018 172.844C97.6018 172.364 97.7578 171.94 98.0698 171.572C98.3898 171.204 98.8058 170.92 99.3178 170.72C99.8298 170.52 100.374 170.42 100.95 170.42C101.47 170.42 101.97 170.504 102.45 170.672C102.93 170.84 103.318 171.08 103.614 171.392C103.918 171.696 104.07 172.052 104.07 172.46C104.07 172.796 104.002 173.06 103.866 173.252C103.73 173.436 103.538 173.528 103.29 173.528C103.13 173.528 103.002 173.484 102.906 173.396C102.81 173.3 102.762 173.176 102.762 173.024C102.762 172.952 102.786 172.82 102.834 172.628C102.834 172.5 102.754 172.352 102.594 172.184C102.418 172.008 102.178 171.864 101.874 171.752C101.57 171.632 101.226 171.572 100.842 171.572C100.218 171.572 99.7258 171.676 99.3658 171.884C99.0138 172.084 98.8378 172.368 98.8378 172.736C98.8378 173.032 99.0738 173.292 99.5458 173.516C99.8978 173.684 100.462 173.912 101.238 174.2C102.07 174.504 102.666 174.8 103.026 175.088C103.386 175.376 103.566 175.736 103.566 176.168C103.566 176.704 103.374 177.188 102.99 177.62C102.606 178.052 102.118 178.392 101.526 178.64C100.942 178.88 100.358 179 99.7738 179ZM109.307 179H105.407C105.167 179 104.995 178.92 104.891 178.76C104.787 178.592 104.767 178.372 104.831 178.1C104.847 178.044 104.947 177.588 105.131 176.732C105.163 176.564 105.199 176.392 105.239 176.216C105.279 176.04 105.319 175.856 105.359 175.664C105.575 174.64 105.727 173.944 105.815 173.576C106.015 172.424 106.211 171.596 106.403 171.092C106.443 170.972 106.511 170.864 106.607 170.768C106.711 170.672 106.819 170.608 106.931 170.576C107.075 170.472 107.215 170.42 107.351 170.42L112.151 170.408C112.311 170.408 112.431 170.452 112.511 170.54C112.591 170.628 112.631 170.74 112.631 170.876C112.631 171.044 112.563 171.2 112.427 171.344C112.291 171.488 112.111 171.56 111.887 171.56C109.647 171.56 108.163 171.564 107.435 171.572C107.395 171.668 107.355 171.8 107.315 171.968C107.283 172.136 107.247 172.332 107.207 172.556L107.003 173.6L106.907 174.032L110.939 174.044C111.091 174.044 111.207 174.088 111.287 174.176C111.375 174.264 111.419 174.376 111.419 174.512C111.419 174.688 111.351 174.852 111.215 175.004C111.079 175.148 110.899 175.22 110.675 175.22L108.335 175.196H106.643L106.103 177.824H106.679C108.087 177.84 108.999 177.848 109.415 177.848L110.627 177.836C110.787 177.836 110.907 177.876 110.987 177.956C111.075 178.036 111.119 178.144 111.119 178.28C111.119 178.464 111.051 178.628 110.915 178.772C110.787 178.916 110.611 178.988 110.387 178.988L109.307 179ZM112.753 178.436C112.777 178.356 113.001 177.176 113.425 174.896C113.729 173.32 114.025 172.04 114.313 171.056C114.369 170.888 114.469 170.752 114.613 170.648C114.757 170.544 114.913 170.496 115.081 170.504C115.161 170.512 115.233 170.536 115.297 170.576C116.273 170.384 117.125 170.34 117.853 170.444C119.133 170.628 119.861 171.228 120.037 172.244C120.085 172.732 120.057 173.132 119.953 173.444C119.857 173.748 119.709 174.024 119.509 174.272C119.309 174.512 119.077 174.708 118.813 174.86C118.557 175.012 118.301 175.136 118.045 175.232C117.797 175.32 117.537 175.388 117.265 175.436C116.409 175.604 115.493 175.632 114.517 175.52C114.229 177.056 114.041 178.028 113.953 178.436C113.921 178.604 113.833 178.748 113.689 178.868C113.553 178.98 113.401 179.036 113.233 179.036C113.065 179.036 112.933 178.98 112.837 178.868C112.749 178.748 112.721 178.604 112.753 178.436ZM114.745 174.332C114.793 174.324 114.845 174.32 114.901 174.32C115.757 174.424 116.545 174.404 117.265 174.26C118.129 174.092 118.637 173.772 118.789 173.3C118.829 173.188 118.841 172.98 118.825 172.676C118.729 172.1 118.269 171.752 117.445 171.632C116.853 171.552 116.149 171.588 115.333 171.74C115.141 172.444 114.945 173.308 114.745 174.332ZM123.191 178.4C123.159 178.568 123.071 178.708 122.927 178.82C122.783 178.932 122.627 178.988 122.459 178.988C122.291 178.988 122.163 178.928 122.075 178.808C121.987 178.688 121.963 178.544 122.003 178.376C122.067 178.096 122.303 176.964 122.711 174.98C123.007 173.532 123.267 172.396 123.491 171.572C122.619 171.564 121.883 171.572 121.283 171.596C121.115 171.604 120.983 171.556 120.887 171.452C120.791 171.34 120.755 171.208 120.779 171.056C120.803 170.896 120.887 170.756 121.031 170.636C121.175 170.516 121.327 170.452 121.487 170.444C122.183 170.42 123.091 170.412 124.211 170.42C125.331 170.42 126.235 170.42 126.923 170.42C127.091 170.42 127.223 170.476 127.319 170.588C127.423 170.7 127.455 170.836 127.415 170.996C127.383 171.156 127.295 171.292 127.151 171.404C127.015 171.516 126.863 171.572 126.695 171.572C126.127 171.572 125.459 171.576 124.691 171.584C124.475 172.384 124.215 173.512 123.911 174.968C123.503 176.96 123.263 178.104 123.191 178.4ZM131.631 179H127.731C127.491 179 127.319 178.92 127.215 178.76C127.111 178.592 127.091 178.372 127.155 178.1C127.171 178.044 127.271 177.588 127.455 176.732C127.487 176.564 127.523 176.392 127.563 176.216C127.603 176.04 127.643 175.856 127.683 175.664C127.899 174.64 128.051 173.944 128.139 173.576C128.339 172.424 128.535 171.596 128.727 171.092C128.767 170.972 128.835 170.864 128.931 170.768C129.035 170.672 129.143 170.608 129.255 170.576C129.399 170.472 129.539 170.42 129.675 170.42L134.475 170.408C134.635 170.408 134.755 170.452 134.835 170.54C134.915 170.628 134.955 170.74 134.955 170.876C134.955 171.044 134.887 171.2 134.751 171.344C134.615 171.488 134.435 171.56 134.211 171.56C131.971 171.56 130.487 171.564 129.759 171.572C129.719 171.668 129.679 171.8 129.639 171.968C129.607 172.136 129.571 172.332 129.531 172.556L129.327 173.6L129.231 174.032L133.263 174.044C133.415 174.044 133.531 174.088 133.611 174.176C133.699 174.264 133.743 174.376 133.743 174.512C133.743 174.688 133.675 174.852 133.539 175.004C133.403 175.148 133.223 175.22 132.999 175.22L130.659 175.196H128.967L128.427 177.824H129.003C130.411 177.84 131.323 177.848 131.739 177.848L132.951 177.836C133.111 177.836 133.231 177.876 133.311 177.956C133.399 178.036 133.443 178.144 133.443 178.28C133.443 178.464 133.375 178.628 133.239 178.772C133.111 178.916 132.935 178.988 132.711 178.988L131.631 179ZM143.105 178.436C143.065 178.604 142.973 178.744 142.829 178.856C142.685 178.968 142.529 179.02 142.361 179.012C142.201 179.004 142.077 178.94 141.989 178.82C141.901 178.7 141.877 178.556 141.917 178.388C142.005 178.148 142.221 177.192 142.565 175.52C142.917 173.848 143.117 172.892 143.165 172.652C142.381 173.452 141.453 174.476 140.381 175.724C140.261 175.868 140.113 175.956 139.937 175.988C139.769 176.02 139.625 175.992 139.505 175.904C139.505 175.896 139.501 175.892 139.493 175.892C139.429 175.844 139.381 175.788 139.349 175.724C139.109 175.252 138.693 174.536 138.101 173.576L137.513 172.64C137.409 173.24 137.277 173.928 137.117 174.704C137.029 175.088 136.893 175.692 136.709 176.516C136.525 177.34 136.385 177.964 136.289 178.388C136.257 178.556 136.169 178.7 136.025 178.82C135.889 178.932 135.737 178.988 135.569 178.988C135.401 178.988 135.269 178.932 135.173 178.82C135.085 178.7 135.057 178.556 135.089 178.388C135.185 177.964 135.325 177.34 135.509 176.516C135.693 175.692 135.829 175.084 135.917 174.692C136.237 173.196 136.445 171.992 136.541 171.08C136.557 170.912 136.629 170.764 136.757 170.636C136.893 170.508 137.045 170.436 137.213 170.42C137.301 170.412 137.377 170.42 137.441 170.444C137.625 170.452 137.761 170.528 137.849 170.672L139.181 172.796C139.557 173.396 139.873 173.92 140.129 174.368C141.545 172.736 142.741 171.492 143.717 170.636C143.757 170.604 143.793 170.576 143.825 170.552C143.977 170.432 144.137 170.376 144.305 170.384C144.473 170.392 144.601 170.456 144.689 170.576C144.777 170.696 144.797 170.84 144.749 171.008C144.541 171.848 144.265 173.096 143.921 174.752C143.585 176.4 143.313 177.628 143.105 178.436ZM145.737 178.964C145.569 178.956 145.441 178.892 145.353 178.772C145.273 178.652 145.253 178.508 145.293 178.34C145.333 178.212 145.401 178.096 145.497 177.992C145.585 177.6 145.709 176.996 145.869 176.18C146.037 175.356 146.169 174.732 146.265 174.308C146.289 174.164 146.345 173.9 146.433 173.516C146.521 173.124 146.581 172.84 146.613 172.664C146.653 172.48 146.693 172.244 146.733 171.956C146.781 171.66 146.813 171.396 146.829 171.164C146.837 170.996 146.905 170.848 147.033 170.72C147.161 170.584 147.305 170.504 147.465 170.48C147.601 170.456 147.721 170.472 147.825 170.528C147.865 170.512 147.909 170.504 147.957 170.504C148.861 170.448 149.565 170.444 150.069 170.492C151.029 170.572 151.709 170.82 152.109 171.236C152.373 171.508 152.525 171.84 152.565 172.232C152.605 172.624 152.541 173.02 152.373 173.42C152.213 173.82 151.973 174.176 151.653 174.488C151.797 174.56 151.913 174.644 152.001 174.74C152.273 175.012 152.429 175.336 152.469 175.712C152.509 176.08 152.449 176.436 152.289 176.78C152.137 177.116 151.921 177.436 151.641 177.74C151.361 178.036 151.053 178.272 150.717 178.448C150.453 178.576 150.161 178.684 149.841 178.772C149.529 178.86 149.241 178.924 148.977 178.964C148.721 179.004 148.417 179.028 148.065 179.036C147.721 179.044 147.449 179.044 147.249 179.036C147.049 179.028 146.773 179.016 146.421 179C146.077 178.984 145.849 178.972 145.737 178.964ZM146.745 177.8C147.193 177.816 147.613 177.832 148.005 177.848C148.405 177.856 148.813 177.824 149.229 177.752C149.653 177.68 150.025 177.56 150.345 177.392C150.745 177.192 151.017 176.908 151.161 176.54C151.305 176.172 151.265 175.876 151.041 175.652C150.881 175.492 150.469 175.364 149.805 175.268C149.541 175.308 149.253 175.328 148.941 175.328C148.701 175.32 148.349 175.3 147.885 175.268C147.773 175.26 147.677 175.256 147.597 175.256C147.541 175.248 147.481 175.232 147.417 175.208L147.273 175.196C147.241 175.348 147.161 175.74 147.033 176.372C146.905 176.996 146.809 177.472 146.745 177.8ZM148.197 174.152C148.277 174.152 148.469 174.148 148.773 174.14C149.269 174.132 149.645 174.136 149.901 174.152H149.973C150.213 174.112 150.413 174.048 150.573 173.96C150.925 173.776 151.161 173.484 151.281 173.084C151.409 172.684 151.365 172.372 151.149 172.148C150.901 171.9 150.421 171.744 149.709 171.68C149.285 171.648 148.709 171.652 147.981 171.692C147.925 172.092 147.769 172.884 147.513 174.068H147.549C147.853 174.108 148.069 174.136 148.197 174.152ZM158.057 179H154.157C153.917 179 153.745 178.92 153.641 178.76C153.537 178.592 153.517 178.372 153.581 178.1C153.597 178.044 153.697 177.588 153.881 176.732C153.913 176.564 153.949 176.392 153.989 176.216C154.029 176.04 154.069 175.856 154.109 175.664C154.325 174.64 154.477 173.944 154.565 173.576C154.765 172.424 154.961 171.596 155.153 171.092C155.193 170.972 155.261 170.864 155.357 170.768C155.461 170.672 155.569 170.608 155.681 170.576C155.825 170.472 155.965 170.42 156.101 170.42L160.901 170.408C161.061 170.408 161.181 170.452 161.261 170.54C161.341 170.628 161.381 170.74 161.381 170.876C161.381 171.044 161.313 171.2 161.177 171.344C161.041 171.488 160.861 171.56 160.637 171.56C158.397 171.56 156.913 171.564 156.185 171.572C156.145 171.668 156.105 171.8 156.065 171.968C156.033 172.136 155.997 172.332 155.957 172.556L155.753 173.6L155.657 174.032L159.689 174.044C159.841 174.044 159.957 174.088 160.037 174.176C160.125 174.264 160.169 174.376 160.169 174.512C160.169 174.688 160.101 174.852 159.965 175.004C159.829 175.148 159.649 175.22 159.425 175.22L157.085 175.196H155.393L154.853 177.824H155.429C156.837 177.84 157.749 177.848 158.165 177.848L159.377 177.836C159.537 177.836 159.657 177.876 159.737 177.956C159.825 178.036 159.869 178.144 159.869 178.28C159.869 178.464 159.801 178.628 159.665 178.772C159.537 178.916 159.361 178.988 159.137 178.988L158.057 179ZM167.659 179.012C167.331 179.012 167.151 178.836 167.119 178.484L167.071 177.92C167.031 177.584 166.999 177.24 166.975 176.888C166.911 175.888 166.371 175.388 165.355 175.388C164.867 175.388 164.511 175.396 164.287 175.412L163.759 175.46C163.551 175.484 163.383 175.488 163.255 175.472C162.999 176.792 162.803 177.764 162.667 178.388C162.635 178.58 162.551 178.728 162.415 178.832C162.279 178.936 162.131 178.988 161.971 178.988C161.803 178.988 161.667 178.932 161.563 178.82C161.467 178.7 161.443 178.536 161.491 178.328L161.779 176.948C161.827 176.724 161.975 176.024 162.223 174.848C162.295 174.488 162.407 173.916 162.559 173.132L162.919 171.32C162.943 171.184 163.011 171.06 163.123 170.948C163.171 170.836 163.247 170.74 163.351 170.66C163.455 170.58 163.571 170.532 163.699 170.516C164.315 170.428 164.867 170.384 165.355 170.384C168.091 170.384 169.459 171.104 169.459 172.544C169.459 173.096 169.263 173.592 168.871 174.032C168.479 174.464 167.939 174.772 167.251 174.956C167.443 175.012 167.619 175.136 167.779 175.328C167.947 175.52 168.055 175.752 168.103 176.024C168.151 176.304 168.199 176.648 168.247 177.056C168.295 177.456 168.327 177.824 168.343 178.16C168.359 178.424 168.291 178.632 168.139 178.784C167.995 178.936 167.835 179.012 167.659 179.012ZM163.507 174.308C163.763 174.276 164.051 174.26 164.371 174.26L164.815 174.248C165.031 174.248 165.179 174.244 165.259 174.236C165.875 174.204 166.471 174.088 167.047 173.888C167.431 173.76 167.719 173.596 167.911 173.396C168.111 173.188 168.211 172.952 168.211 172.688C168.211 172.336 167.963 172.056 167.467 171.848C166.971 171.632 166.287 171.524 165.415 171.524C164.927 171.524 164.475 171.552 164.059 171.608L163.951 172.112L163.507 174.308ZM176.196 178.916C175.156 179.172 174.36 178.944 173.808 178.232C173.36 177.648 173.152 176.84 173.184 175.808C173.184 175.376 173.252 174.912 173.388 174.416C173.524 173.912 173.696 173.436 173.904 172.988C174.112 172.54 174.392 172.116 174.744 171.716C175.104 171.308 175.5 170.984 175.932 170.744C176.004 170.704 176.088 170.668 176.184 170.636C176.28 170.596 176.364 170.564 176.436 170.54L176.664 170.468C176.728 170.452 176.764 170.444 176.772 170.444C177.012 170.364 177.204 170.404 177.348 170.564C177.444 170.556 177.58 170.56 177.756 170.576C177.932 170.592 178.052 170.6 178.116 170.6C178.772 170.76 179.2 171.288 179.4 172.184C179.568 172.92 179.556 173.76 179.364 174.704C179.164 175.68 178.82 176.532 178.332 177.26C177.732 178.172 177.02 178.724 176.196 178.916ZM176.148 177.764C176.58 177.66 176.98 177.328 177.348 176.768C177.724 176.192 177.996 175.504 178.164 174.704C178.316 173.92 178.332 173.24 178.212 172.664C178.092 172.136 177.888 171.84 177.6 171.776C177.48 171.752 177.396 171.744 177.348 171.752C177.308 171.752 177.212 171.76 177.06 171.776C176.908 171.784 176.76 171.788 176.616 171.788C176.536 171.788 176.46 171.772 176.388 171.74C176.38 171.748 176.372 171.752 176.364 171.752C175.82 172.056 175.364 172.576 174.996 173.312C174.628 174.04 174.432 174.804 174.408 175.604C174.384 176.388 174.528 176.98 174.84 177.38C175.144 177.772 175.58 177.9 176.148 177.764ZM181.744 179C181.216 178.92 180.784 178.728 180.448 178.424C180.112 178.112 179.92 177.732 179.872 177.284C179.816 176.812 179.924 176.34 180.196 175.868C180.476 175.396 180.888 174.984 181.432 174.632C181.504 174.584 181.584 174.536 181.672 174.488C181.584 174.456 181.508 174.424 181.444 174.392C180.996 174.152 180.716 173.852 180.604 173.492C180.428 172.948 180.652 172.316 181.276 171.596C182.012 170.74 182.988 170.348 184.204 170.42C184.26 170.412 184.308 170.408 184.348 170.408C184.38 170.408 184.428 170.404 184.492 170.396L184.708 170.384C184.956 170.36 185.164 170.376 185.332 170.432C185.676 170.56 185.936 170.772 186.112 171.068C186.288 171.364 186.384 171.7 186.4 172.076C186.416 172.404 186.352 172.764 186.208 173.156C186.064 173.548 185.844 173.884 185.548 174.164C185.364 174.348 185.152 174.508 184.912 174.644C185.144 174.876 185.324 175.136 185.452 175.424C185.684 176 185.724 176.54 185.572 177.044C185.42 177.54 185.108 177.968 184.636 178.328C184.244 178.624 183.784 178.832 183.256 178.952C182.728 179.064 182.224 179.08 181.744 179ZM182.152 177.824C182.512 177.872 182.86 177.86 183.196 177.788C183.532 177.708 183.808 177.588 184.024 177.428C184.456 177.108 184.548 176.656 184.3 176.072C184.156 175.712 183.832 175.408 183.328 175.16C183.056 175.216 182.864 175.26 182.752 175.292C182.64 175.316 182.504 175.356 182.344 175.412C182.184 175.468 182.052 175.528 181.948 175.592C181.62 175.8 181.388 176.02 181.252 176.252C181.124 176.484 181.068 176.704 181.084 176.912C181.116 177.128 181.22 177.32 181.396 177.488C181.58 177.656 181.832 177.768 182.152 177.824ZM183.7 173.9C184.212 173.78 184.568 173.62 184.768 173.42C185.048 173.148 185.18 172.796 185.164 172.364C185.164 172.116 185.1 171.92 184.972 171.776C184.924 171.776 184.88 171.772 184.84 171.764C184.416 171.676 184.056 171.628 183.76 171.62C183.464 171.604 183.172 171.644 182.884 171.74C182.596 171.836 182.348 172.004 182.14 172.244C181.852 172.572 181.732 172.804 181.78 172.94C181.82 173.06 181.956 173.18 182.188 173.3C182.324 173.372 182.672 173.512 183.232 173.72C183.416 173.784 183.572 173.844 183.7 173.9ZM187.426 176.288C187.25 176.296 187.11 176.248 187.006 176.144C186.91 176.032 186.874 175.896 186.898 175.736C186.922 175.568 186.998 175.424 187.126 175.304C187.262 175.176 187.414 175.104 187.582 175.088C187.83 175.072 188.186 175.056 188.65 175.04C189.114 175.024 189.43 175.012 189.598 175.004C189.766 174.996 189.902 175.048 190.006 175.16C190.11 175.272 190.146 175.412 190.114 175.58C190.09 175.74 190.006 175.884 189.862 176.012C189.726 176.132 189.578 176.196 189.418 176.204C189.242 176.212 188.926 176.224 188.47 176.24C188.022 176.256 187.674 176.272 187.426 176.288ZM196.2 179.024C195.032 178.944 194.024 178.912 193.176 178.928C193.152 178.928 193.1 178.932 193.02 178.94C192.948 178.94 192.848 178.944 192.72 178.952C192.592 178.952 192.48 178.952 192.384 178.952C192.176 178.96 192.012 178.964 191.892 178.964C191.812 178.972 191.752 178.972 191.712 178.964H191.628C191.564 178.964 191.5 178.952 191.436 178.928C191.252 178.848 191.084 178.728 190.932 178.568C190.78 178.4 190.708 178.188 190.716 177.932C190.732 177.66 190.864 177.372 191.112 177.068C191.264 176.876 191.484 176.656 191.772 176.408C192.012 176.216 192.596 175.78 193.524 175.1C194.308 174.524 194.876 174.076 195.228 173.756C195.668 173.348 195.916 173.036 195.972 172.82C196.06 172.428 196.028 172.14 195.876 171.956C195.732 171.764 195.508 171.66 195.204 171.644C194.868 171.636 194.524 171.728 194.172 171.92C193.828 172.104 193.552 172.36 193.344 172.688C193.328 172.72 193.308 172.776 193.284 172.856C193.22 173.104 193.188 173.232 193.188 173.24C193.124 173.4 193.016 173.532 192.864 173.636C192.712 173.732 192.556 173.772 192.396 173.756C192.236 173.732 192.12 173.656 192.048 173.528C191.976 173.392 191.968 173.24 192.024 173.072C192.032 173.04 192.04 173.008 192.048 172.976C192.064 172.944 192.076 172.908 192.084 172.868C192.092 172.82 192.104 172.784 192.12 172.76C192.176 172.56 192.248 172.392 192.336 172.256C192.68 171.672 193.148 171.22 193.74 170.9C194.34 170.58 194.924 170.428 195.492 170.444C196.108 170.468 196.584 170.692 196.92 171.116C197.256 171.532 197.34 172.108 197.172 172.844C197.044 173.356 196.64 173.924 195.96 174.548C195.584 174.892 194.972 175.376 194.124 176C193.244 176.64 192.688 177.056 192.456 177.248C192.248 177.424 192.096 177.572 192 177.692C191.984 177.7 191.976 177.712 191.976 177.728C191.992 177.744 192.012 177.756 192.036 177.764H192.12C192.232 177.764 192.396 177.76 192.612 177.752C192.708 177.752 192.82 177.752 192.948 177.752C193.076 177.744 193.176 177.74 193.248 177.74C193.328 177.732 193.38 177.728 193.404 177.728C194.292 177.712 195.332 177.744 196.524 177.824C196.692 177.832 196.816 177.9 196.896 178.028C196.976 178.156 196.996 178.304 196.956 178.472C196.916 178.632 196.82 178.768 196.668 178.88C196.516 178.984 196.36 179.032 196.2 179.024ZM199.756 179C199.228 178.92 198.796 178.728 198.46 178.424C198.124 178.112 197.932 177.732 197.884 177.284C197.828 176.812 197.936 176.34 198.208 175.868C198.488 175.396 198.9 174.984 199.444 174.632C199.516 174.584 199.596 174.536 199.684 174.488C199.596 174.456 199.52 174.424 199.456 174.392C199.008 174.152 198.728 173.852 198.616 173.492C198.44 172.948 198.664 172.316 199.288 171.596C200.024 170.74 201 170.348 202.216 170.42C202.272 170.412 202.32 170.408 202.36 170.408C202.392 170.408 202.44 170.404 202.504 170.396L202.72 170.384C202.968 170.36 203.176 170.376 203.344 170.432C203.688 170.56 203.948 170.772 204.124 171.068C204.3 171.364 204.396 171.7 204.412 172.076C204.428 172.404 204.364 172.764 204.22 173.156C204.076 173.548 203.856 173.884 203.56 174.164C203.376 174.348 203.164 174.508 202.924 174.644C203.156 174.876 203.336 175.136 203.464 175.424C203.696 176 203.736 176.54 203.584 177.044C203.432 177.54 203.12 177.968 202.648 178.328C202.256 178.624 201.796 178.832 201.268 178.952C200.74 179.064 200.236 179.08 199.756 179ZM200.164 177.824C200.524 177.872 200.872 177.86 201.208 177.788C201.544 177.708 201.82 177.588 202.036 177.428C202.468 177.108 202.56 176.656 202.312 176.072C202.168 175.712 201.844 175.408 201.34 175.16C201.068 175.216 200.876 175.26 200.764 175.292C200.652 175.316 200.516 175.356 200.356 175.412C200.196 175.468 200.064 175.528 199.96 175.592C199.632 175.8 199.4 176.02 199.264 176.252C199.136 176.484 199.08 176.704 199.096 176.912C199.128 177.128 199.232 177.32 199.408 177.488C199.592 177.656 199.844 177.768 200.164 177.824ZM201.712 173.9C202.224 173.78 202.58 173.62 202.78 173.42C203.06 173.148 203.192 172.796 203.176 172.364C203.176 172.116 203.112 171.92 202.984 171.776C202.936 171.776 202.892 171.772 202.852 171.764C202.428 171.676 202.068 171.628 201.772 171.62C201.476 171.604 201.184 171.644 200.896 171.74C200.608 171.836 200.36 172.004 200.152 172.244C199.864 172.572 199.744 172.804 199.792 172.94C199.832 173.06 199.968 173.18 200.2 173.3C200.336 173.372 200.684 173.512 201.244 173.72C201.428 173.784 201.584 173.844 201.712 173.9ZM205.509 177.812C205.621 177.948 205.657 178.112 205.617 178.304C205.577 178.488 205.473 178.648 205.305 178.784C205.145 178.92 204.969 178.988 204.777 178.988C204.585 178.988 204.437 178.92 204.333 178.784C204.229 178.648 204.197 178.488 204.237 178.304C204.277 178.112 204.377 177.948 204.537 177.812C204.697 177.676 204.869 177.608 205.053 177.608C205.245 177.608 205.397 177.676 205.509 177.812ZM215.396 179.024C214.228 178.944 213.22 178.912 212.372 178.928C212.348 178.928 212.296 178.932 212.216 178.94C212.144 178.94 212.044 178.944 211.916 178.952C211.788 178.952 211.676 178.952 211.58 178.952C211.372 178.96 211.208 178.964 211.088 178.964C211.008 178.972 210.948 178.972 210.908 178.964H210.824C210.76 178.964 210.696 178.952 210.632 178.928C210.448 178.848 210.28 178.728 210.128 178.568C209.976 178.4 209.904 178.188 209.912 177.932C209.928 177.66 210.06 177.372 210.308 177.068C210.46 176.876 210.68 176.656 210.968 176.408C211.208 176.216 211.792 175.78 212.72 175.1C213.504 174.524 214.072 174.076 214.424 173.756C214.864 173.348 215.112 173.036 215.168 172.82C215.256 172.428 215.224 172.14 215.072 171.956C214.928 171.764 214.704 171.66 214.4 171.644C214.064 171.636 213.72 171.728 213.368 171.92C213.024 172.104 212.748 172.36 212.54 172.688C212.524 172.72 212.504 172.776 212.48 172.856C212.416 173.104 212.384 173.232 212.384 173.24C212.32 173.4 212.212 173.532 212.06 173.636C211.908 173.732 211.752 173.772 211.592 173.756C211.432 173.732 211.316 173.656 211.244 173.528C211.172 173.392 211.164 173.24 211.22 173.072C211.228 173.04 211.236 173.008 211.244 172.976C211.26 172.944 211.272 172.908 211.28 172.868C211.288 172.82 211.3 172.784 211.316 172.76C211.372 172.56 211.444 172.392 211.532 172.256C211.876 171.672 212.344 171.22 212.936 170.9C213.536 170.58 214.12 170.428 214.688 170.444C215.304 170.468 215.78 170.692 216.116 171.116C216.452 171.532 216.536 172.108 216.368 172.844C216.24 173.356 215.836 173.924 215.156 174.548C214.78 174.892 214.168 175.376 213.32 176C212.44 176.64 211.884 177.056 211.652 177.248C211.444 177.424 211.292 177.572 211.196 177.692C211.18 177.7 211.172 177.712 211.172 177.728C211.188 177.744 211.208 177.756 211.232 177.764H211.316C211.428 177.764 211.592 177.76 211.808 177.752C211.904 177.752 212.016 177.752 212.144 177.752C212.272 177.744 212.372 177.74 212.444 177.74C212.524 177.732 212.576 177.728 212.6 177.728C213.488 177.712 214.528 177.744 215.72 177.824C215.888 177.832 216.012 177.9 216.092 178.028C216.172 178.156 216.192 178.304 216.152 178.472C216.112 178.632 216.016 178.768 215.864 178.88C215.712 178.984 215.556 179.032 215.396 179.024ZM220.223 178.916C219.183 179.172 218.387 178.944 217.835 178.232C217.387 177.648 217.179 176.84 217.211 175.808C217.211 175.376 217.279 174.912 217.415 174.416C217.551 173.912 217.723 173.436 217.931 172.988C218.139 172.54 218.419 172.116 218.771 171.716C219.131 171.308 219.527 170.984 219.959 170.744C220.031 170.704 220.115 170.668 220.211 170.636C220.307 170.596 220.391 170.564 220.463 170.54L220.691 170.468C220.755 170.452 220.791 170.444 220.799 170.444C221.039 170.364 221.231 170.404 221.375 170.564C221.471 170.556 221.607 170.56 221.783 170.576C221.959 170.592 222.079 170.6 222.143 170.6C222.799 170.76 223.227 171.288 223.427 172.184C223.595 172.92 223.583 173.76 223.391 174.704C223.191 175.68 222.847 176.532 222.359 177.26C221.759 178.172 221.047 178.724 220.223 178.916ZM220.175 177.764C220.607 177.66 221.007 177.328 221.375 176.768C221.751 176.192 222.023 175.504 222.191 174.704C222.343 173.92 222.359 173.24 222.239 172.664C222.119 172.136 221.915 171.84 221.627 171.776C221.507 171.752 221.423 171.744 221.375 171.752C221.335 171.752 221.239 171.76 221.087 171.776C220.935 171.784 220.787 171.788 220.643 171.788C220.563 171.788 220.487 171.772 220.415 171.74C220.407 171.748 220.399 171.752 220.391 171.752C219.847 172.056 219.391 172.576 219.023 173.312C218.655 174.04 218.459 174.804 218.435 175.604C218.411 176.388 218.555 176.98 218.867 177.38C219.171 177.772 219.607 177.9 220.175 177.764ZM229.071 179.024C227.903 178.944 226.895 178.912 226.047 178.928C226.023 178.928 225.971 178.932 225.891 178.94C225.819 178.94 225.719 178.944 225.591 178.952C225.463 178.952 225.351 178.952 225.255 178.952C225.047 178.96 224.883 178.964 224.763 178.964C224.683 178.972 224.623 178.972 224.583 178.964H224.499C224.435 178.964 224.371 178.952 224.307 178.928C224.123 178.848 223.955 178.728 223.803 178.568C223.651 178.4 223.579 178.188 223.587 177.932C223.603 177.66 223.735 177.372 223.983 177.068C224.135 176.876 224.355 176.656 224.643 176.408C224.883 176.216 225.467 175.78 226.395 175.1C227.179 174.524 227.747 174.076 228.099 173.756C228.539 173.348 228.787 173.036 228.843 172.82C228.931 172.428 228.899 172.14 228.747 171.956C228.603 171.764 228.379 171.66 228.075 171.644C227.739 171.636 227.395 171.728 227.043 171.92C226.699 172.104 226.423 172.36 226.215 172.688C226.199 172.72 226.179 172.776 226.155 172.856C226.091 173.104 226.059 173.232 226.059 173.24C225.995 173.4 225.887 173.532 225.735 173.636C225.583 173.732 225.427 173.772 225.267 173.756C225.107 173.732 224.991 173.656 224.919 173.528C224.847 173.392 224.839 173.24 224.895 173.072C224.903 173.04 224.911 173.008 224.919 172.976C224.935 172.944 224.947 172.908 224.955 172.868C224.963 172.82 224.975 172.784 224.991 172.76C225.047 172.56 225.119 172.392 225.207 172.256C225.551 171.672 226.019 171.22 226.611 170.9C227.211 170.58 227.795 170.428 228.363 170.444C228.979 170.468 229.455 170.692 229.791 171.116C230.127 171.532 230.211 172.108 230.043 172.844C229.915 173.356 229.511 173.924 228.831 174.548C228.455 174.892 227.843 175.376 226.995 176C226.115 176.64 225.559 177.056 225.327 177.248C225.119 177.424 224.967 177.572 224.871 177.692C224.855 177.7 224.847 177.712 224.847 177.728C224.863 177.744 224.883 177.756 224.907 177.764H224.991C225.103 177.764 225.267 177.76 225.483 177.752C225.579 177.752 225.691 177.752 225.819 177.752C225.947 177.744 226.047 177.74 226.119 177.74C226.199 177.732 226.251 177.728 226.275 177.728C227.163 177.712 228.203 177.744 229.395 177.824C229.563 177.832 229.687 177.9 229.767 178.028C229.847 178.156 229.867 178.304 229.827 178.472C229.787 178.632 229.691 178.768 229.539 178.88C229.387 178.984 229.231 179.032 229.071 179.024ZM232.807 178.988C232.295 178.948 231.879 178.8 231.559 178.544C231.239 178.304 231.027 178.024 230.923 177.704C230.907 177.64 230.863 177.352 230.791 176.84C230.767 176.688 230.803 176.536 230.899 176.384C231.003 176.224 231.139 176.116 231.307 176.06C231.475 176.004 231.627 176.012 231.763 176.084C231.899 176.148 231.979 176.264 232.003 176.432C232.067 176.88 232.103 177.108 232.111 177.116C232.151 177.252 232.255 177.384 232.423 177.512C232.607 177.648 232.859 177.736 233.179 177.776C233.499 177.808 233.839 177.772 234.199 177.668C234.559 177.564 234.863 177.416 235.111 177.224C235.359 177.024 235.531 176.796 235.627 176.54C235.787 176.108 235.687 175.76 235.327 175.496C235.183 175.4 235.015 175.32 234.823 175.256C234.759 175.232 234.699 175.212 234.643 175.196L234.583 175.184C234.567 175.184 234.555 175.18 234.547 175.172C234.531 175.172 234.519 175.168 234.511 175.16C234.487 175.152 234.463 175.14 234.439 175.124C234.407 175.108 234.375 175.08 234.343 175.04C234.239 174.936 234.199 174.8 234.223 174.632C234.247 174.448 234.339 174.28 234.499 174.128C234.547 174.08 234.603 174.036 234.667 173.996L234.943 173.84C235.199 173.688 235.395 173.56 235.531 173.456C235.931 173.16 236.111 172.864 236.071 172.568C236.023 172.048 235.731 171.752 235.195 171.68C234.939 171.64 234.663 171.66 234.367 171.74C234.079 171.82 233.811 171.948 233.563 172.124C233.491 172.188 233.427 172.24 233.371 172.28C233.323 172.312 233.271 172.36 233.215 172.424C233.167 172.488 233.131 172.536 233.107 172.568C233.091 172.6 233.043 172.676 232.963 172.796C232.891 172.916 232.827 173.012 232.771 173.084C232.675 173.236 232.543 173.344 232.375 173.408C232.207 173.464 232.055 173.456 231.919 173.384C231.783 173.312 231.703 173.196 231.679 173.036C231.655 172.876 231.695 172.72 231.799 172.568C231.823 172.528 231.879 172.44 231.967 172.304C232.063 172.16 232.131 172.06 232.171 172.004C232.211 171.948 232.271 171.868 232.351 171.764C232.439 171.66 232.531 171.564 232.627 171.476C232.731 171.38 232.855 171.284 232.999 171.188C233.399 170.892 233.831 170.68 234.295 170.552C234.767 170.424 235.211 170.392 235.627 170.456C236.075 170.52 236.455 170.7 236.767 170.996C237.079 171.284 237.259 171.676 237.307 172.172C237.395 172.996 236.999 173.736 236.119 174.392L236.107 174.404L236.167 174.452C236.487 174.684 236.715 174.988 236.851 175.364C236.995 175.74 236.967 176.196 236.767 176.732C236.567 177.276 236.239 177.728 235.783 178.088C235.327 178.448 234.831 178.7 234.295 178.844C233.815 178.996 233.319 179.044 232.807 178.988Z" fill="white"/>
<path d="M94.32 94.08C95.3867 94.9067 95.92 96 95.92 97.36V108H59.28V106.2H63.24V82H59.28V80.2H95.92V90.8C95.92 92.16 95.3867 93.2533 94.32 94.08ZM94.08 97.36C94.08 96.6933 93.8533 96.1333 93.4 95.68C92.9467 95.2267 92.4 95 91.76 95H69.92V106.2H94.08V97.36ZM94.08 82H69.92V93.16H91.76C92.4 93.16 92.9467 92.9333 93.4 92.48C93.8533 92.0267 94.08 91.4667 94.08 90.8V82ZM134.388 100.6V108H99.7478V106.2H103.748V82H99.7478V80.2H114.388V82H110.428V106.2H132.588V100.6H134.388ZM177.067 106.2V108H167.347V106.2H171.307V95H147.147V106.2H151.107V108H136.467V106.2H140.467V82H136.467V80.2H173.107V106.2H177.067ZM171.307 93.2V82H147.147V93.2H171.307ZM211.966 87.6V82H189.686V106.2H211.966V100.6H213.766V108H179.046V106.2H183.006V82H179.046V80.2H213.766V87.6H211.966ZM251.653 106.2H256.093V108H246.333V106.2H249.413L241.013 95H227.733V106.2H231.733V108H217.093V106.2H221.053V82H217.093V80.2H231.733V82H227.733V93.2H240.973L247.933 82H244.693V80.2H254.453V82H250.093L242.573 94.04L251.653 106.2Z" fill="white"/>
<path d="M113.32 116.3V127.4H110.62V119H75.88V135.8H100.84V129.86H103.54V144.44H100.84V138.5H75.88V155.3H81.82V158H59.92V155.3H65.86V119H59.92V116.3H113.32ZM168.671 137.12C170.271 138.36 171.071 140 171.071 142.04V155.3H177.011V158H162.431V155.3H168.311V142.04C168.311 141.04 167.971 140.2 167.291 139.52C166.611 138.84 165.791 138.5 164.831 138.5H132.071V155.3H138.071V158H116.111V155.3H122.051V119H116.111V116.3H171.071V132.2C171.071 134.24 170.271 135.88 168.671 137.12ZM168.311 119H132.071V135.74H164.831C165.791 135.74 166.611 135.4 167.291 134.72C167.971 134.04 168.311 133.2 168.311 132.2V119ZM200.019 119V155.3H210.819V158H179.199V155.3H189.999V119H179.199V116.3H210.819V119H200.019ZM260.224 116.3C262.584 116.3 264.604 117.16 266.284 118.88C268.004 120.56 268.864 122.6 268.864 125V149.36C268.864 151.72 268.004 153.76 266.284 155.48C264.604 157.16 262.584 158 260.224 158H213.904V155.3H219.844V119H213.904V116.3H260.224ZM266.164 125C266.164 123.36 265.564 121.96 264.364 120.8C263.204 119.6 261.824 119 260.224 119H229.864V155.3H260.224C261.824 155.3 263.204 154.72 264.364 153.56C265.564 152.36 266.164 150.96 266.164 149.36V125ZM335.213 155.3V158H320.633V155.3H326.573V138.5H290.333V155.3H296.273V158H274.313V155.3H280.313V119H274.313V116.3H329.273V155.3H335.213ZM326.573 135.8V119H290.333V135.8H326.573ZM376.719 116.3H391.299V119H384.639L368.319 137.66V155.3H374.259V158H352.359V155.3H358.299V137.66L341.979 119H335.259V116.3H349.899V119H345.579L360.279 135.8H366.339L381.039 119H376.719V116.3Z" fill="#ACDC54"/>
<path d="M251.787 64.0239C270.493 65.538 271.905 67.0606 272.977 89.7064C272.981 89.8046 273.172 89.8067 273.176 89.7054C274.303 67.0797 275.733 65.5984 294.428 64.3999C294.553 64.3948 294.552 64.2593 294.431 64.2495C275.723 62.7316 274.321 61.2323 273.241 38.5671C273.237 38.4689 273.046 38.4668 273.041 38.568C271.913 61.1899 270.488 62.6828 251.789 63.8736C251.66 63.8802 251.674 64.0337 251.787 64.0239Z" fill="#ACDC54"/>
<path d="M257.935 51.1925C261.453 51.4171 261.71 51.6933 261.849 55.8328C261.856 55.8486 261.886 55.8516 261.885 55.8332C262.161 51.691 262.433 51.4158 265.958 51.154C265.961 51.1544 265.964 51.1541 265.966 51.1531C265.969 51.1521 265.972 51.1505 265.973 51.1484C265.975 51.1463 265.976 51.1438 265.977 51.1412C265.977 51.1386 265.977 51.1359 265.976 51.1334C265.975 51.131 265.973 51.1288 265.971 51.1272C265.969 51.1256 265.966 51.1246 265.963 51.1242C265.96 51.1239 265.957 51.1243 265.954 51.1253C265.951 51.1264 265.949 51.1281 265.947 51.1302C262.442 50.892 262.178 50.6182 262.042 46.4799C262.035 46.464 262.003 46.4619 262.004 46.4803C261.727 50.6205 261.455 50.8957 257.933 51.1567C257.908 51.1589 257.908 51.184 257.935 51.1925Z" fill="#ACDC54"/>
<path d="M280.067 78.2318C284.654 78.605 285.003 78.9792 285.261 84.5345C285.261 84.5345 285.31 84.5572 285.303 84.519C285.584 78.9826 285.93 78.6019 290.518 78.309C290.543 78.2998 290.547 78.2756 290.504 78.2778C285.918 77.9046 285.571 77.5343 285.312 71.9791C285.302 71.9557 285.262 71.9524 285.27 71.9945C284.989 77.531 284.643 77.9116 280.055 78.2045C280.034 78.1897 280.042 78.2411 280.067 78.2318Z" fill="#ACDC54"/>
<path d="M284.414 55.782C288.402 56.1261 288.7 56.4285 288.927 61.2529C288.927 61.2529 288.97 61.2733 288.965 61.239C289.209 56.4316 289.515 56.1155 293.507 55.8558C293.533 55.8466 293.541 55.8435 293.496 55.8285C289.511 55.5055 289.209 55.1821 288.983 50.3576C288.983 50.3576 288.939 50.3372 288.945 50.3715C288.7 55.1789 288.4 55.5068 284.415 55.7501C284.386 55.7516 284.388 55.7781 284.414 55.782Z" fill="#ACDC54"/>
</svg>
