<svg width="30" height="30" viewBox="0 0 30 30" fill="none" xmlns="http://www.w3.org/2000/svg">
<path d="M10.4751 15L13.4876 18.025L19.5251 11.975" stroke="#0D53BB" stroke-width="2" stroke-linecap="round" stroke-linejoin="round"/>
<path d="M13.4376 3.06252C14.3001 2.32502 15.7126 2.32502 16.5876 3.06252L18.5626 4.76252C18.9376 5.08752 19.6376 5.35002 20.1376 5.35002H22.2626C23.5876 5.35002 24.6751 6.43752 24.6751 7.76252V9.88752C24.6751 10.375 24.9376 11.0875 25.2626 11.4625L26.9626 13.4375C27.7001 14.3 27.7001 15.7125 26.9626 16.5875L25.2626 18.5625C24.9376 18.9375 24.6751 19.6375 24.6751 20.1375V22.2625C24.6751 23.5875 23.5876 24.675 22.2626 24.675H20.1376C19.6501 24.675 18.9376 24.9375 18.5626 25.2625L16.5876 26.9625C15.7251 27.7 14.3126 27.7 13.4376 26.9625L11.4626 25.2625C11.0876 24.9375 10.3876 24.675 9.8876 24.675H7.7251C6.4001 24.675 5.3126 23.5875 5.3126 22.2625V20.125C5.3126 19.6375 5.0501 18.9375 4.7376 18.5625L3.0501 16.575C2.3251 15.7125 2.3251 14.3125 3.0501 13.45L4.7376 11.4625C5.0501 11.0875 5.3126 10.3875 5.3126 9.90002V7.75002C5.3126 6.42502 6.4001 5.33752 7.7251 5.33752H9.8876C10.3751 5.33752 11.0876 5.07502 11.4626 4.75002L13.4376 3.06252Z" stroke="#0D53BB" stroke-width="2" stroke-linecap="round" stroke-linejoin="round"/>
</svg>
