<svg width="27" height="23" viewBox="0 0 27 23" fill="none" xmlns="http://www.w3.org/2000/svg">
<path d="M19.3593 20.7192C19.064 20.7192 18.7807 20.6017 18.5719 20.3924C18.3631 20.1832 18.2458 19.8994 18.2458 19.6035H16.0187C16.0187 20.4912 16.3706 21.3426 16.9971 21.9703C17.6236 22.598 18.4733 22.9506 19.3593 22.9506C20.2453 22.9506 21.095 22.598 21.7215 21.9703C22.348 21.3426 22.6999 20.4912 22.6999 19.6035H20.4729C20.4729 19.8994 20.3555 20.1832 20.1467 20.3924C19.9379 20.6017 19.6546 20.7192 19.3593 20.7192Z" fill="black"/>
<path d="M11.5234 20.7192C11.2281 20.7192 10.9449 20.6017 10.736 20.3924C10.5272 20.1832 10.4099 19.8994 10.4099 19.6035H8.17236C8.17236 20.0437 8.2589 20.4796 8.42702 20.8863C8.59515 21.2929 8.84158 21.6625 9.15224 21.9737C9.4629 22.285 9.83171 22.5319 10.2376 22.7003C10.6435 22.8688 11.0785 22.9555 11.5179 22.9555C11.9572 22.9555 12.3922 22.8688 12.7981 22.7003C13.204 22.5319 13.5728 22.285 13.8835 21.9737C14.1942 21.6625 14.4406 21.2929 14.6087 20.8863C14.7768 20.4796 14.8634 20.0437 14.8634 19.6035H12.6363C12.6363 19.8993 12.5191 20.183 12.3104 20.3922C12.1017 20.6014 11.8187 20.719 11.5234 20.7192V20.7192Z" fill="black"/>
<path d="M26.0504 2.26008C25.9897 2.24973 25.9282 2.2446 25.8666 2.24474H8.04992C7.75459 2.24474 7.47135 2.36229 7.26252 2.57152C7.05369 2.78075 6.93637 3.06453 6.93637 3.36043C6.93637 3.65633 7.05369 3.94012 7.26252 4.14935C7.47135 4.35858 7.75459 4.47613 8.04992 4.47613H24.552L24.2576 6.24589L22.6965 15.6331H8.17032L4.38427 6.24589L2.12586 0.695325C2.00643 0.434207 1.79109 0.229299 1.52466 0.123255C1.25824 0.0172112 0.961258 0.0182024 0.695545 0.126022C0.429832 0.233842 0.215858 0.440183 0.0981665 0.702092C-0.0195254 0.964001 -0.0318673 1.2613 0.0637099 1.53209L3.66951 10.397L6.13045 16.9321C6.31209 17.4823 6.68722 17.8644 7.22868 17.8644H23.6396C23.9032 17.8646 24.1584 17.7709 24.3597 17.6002C24.5609 17.4295 24.6951 17.1927 24.7385 16.9321L26.516 6.24589L26.9656 3.54383C27.0141 3.252 26.9449 2.95282 26.7733 2.71209C26.6017 2.47135 26.3416 2.30876 26.0504 2.26008V2.26008Z" fill="black"/>
</svg>
