<svg width="23" height="23" viewBox="0 0 23 23" fill="none" xmlns="http://www.w3.org/2000/svg">
<path d="M22.8548 21.3335C21.6915 19.3657 20.0317 17.7342 18.0398 16.6007C16.0478 15.4671 13.7928 14.8708 11.4979 14.8708C9.20304 14.8708 6.94798 15.4671 4.95601 16.6007C2.96405 17.7342 1.30427 19.3657 0.141025 21.3335C-0.00138538 21.5887 -0.0376415 21.8893 0.0400248 22.1708C0.0766559 22.3141 0.143667 22.4481 0.236568 22.5636C0.329469 22.6791 0.446115 22.7735 0.578691 22.8406C0.74972 22.937 0.943214 22.987 1.1398 22.9857C1.33475 22.9939 1.52817 22.9482 1.69855 22.8536C1.86893 22.759 2.0096 22.6192 2.10491 22.4498C3.06783 20.8199 4.44211 19.4686 6.09163 18.5296C7.74115 17.5907 9.60864 17.0968 11.5091 17.0968C13.4096 17.0968 15.2771 17.5907 16.9266 18.5296C18.5761 19.4686 19.9504 20.8199 20.9133 22.4498C21.0632 22.7033 21.3076 22.8877 21.5934 22.9629C21.8792 23.0382 22.1832 22.9982 22.4396 22.8517C22.5672 22.784 22.6791 22.6904 22.768 22.577C22.8569 22.4635 22.9209 22.3327 22.9558 22.1931C22.9973 22.0503 23.0098 21.9008 22.9924 21.7532C22.9751 21.6056 22.9283 21.4629 22.8548 21.3335Z" fill="white"/>
<path d="M11.5 13.8C13.3083 13.8003 15.0444 13.0842 16.3348 11.8057C17.6253 10.5272 18.3668 8.78854 18.4 6.96384C18.4 5.11691 17.673 3.34563 16.379 2.03966C15.085 0.733688 13.33 0 11.5 0C9.66998 0 7.91494 0.733688 6.62094 2.03966C5.32694 3.34563 4.59998 5.11691 4.59998 6.96384C4.63313 8.78854 5.3747 10.5272 6.66512 11.8057C7.95555 13.0842 9.69169 13.8003 11.5 13.8ZM6.89998 6.96384C6.89998 5.73255 7.38462 4.5517 8.24728 3.68105C9.10995 2.8104 10.28 2.32128 11.5 2.32128C12.72 2.32128 13.89 2.8104 14.7527 3.68105C15.6153 4.5517 16.1 5.73255 16.1 6.96384C16.1 8.19512 15.6153 9.37597 14.7527 10.2466C13.89 11.1173 12.72 11.6064 11.5 11.6064C10.28 11.6064 9.10995 11.1173 8.24728 10.2466C7.38462 9.37597 6.89998 8.19512 6.89998 6.96384Z" fill="white"/>
</svg>
