<svg width="30" height="30" viewBox="0 0 30 30" fill="none" xmlns="http://www.w3.org/2000/svg">
<path d="M3.9624 9.29999L14.9999 15.6875L25.9624 9.33745" stroke="#0D53BB" stroke-width="2" stroke-linecap="round" stroke-linejoin="round"/>
<path d="M15 27.0124V15.6749" stroke="#0D53BB" stroke-width="2" stroke-linecap="round" stroke-linejoin="round"/>
<path d="M12.4123 3.1L5.73728 6.81254C4.22478 7.65004 2.9873 9.75001 2.9873 11.475V18.5375C2.9873 20.2625 4.22478 22.3625 5.73728 23.2L12.4123 26.9126C13.8373 27.7001 16.1748 27.7001 17.5998 26.9126L24.2748 23.2C25.7873 22.3625 27.0248 20.2625 27.0248 18.5375V11.475C27.0248 9.75001 25.7873 7.65004 24.2748 6.81254L17.5998 3.1C16.1623 2.3 13.8373 2.3 12.4123 3.1Z" stroke="#0D53BB" stroke-width="2" stroke-linecap="round" stroke-linejoin="round"/>
<path d="M21.2502 16.55V11.975L9.3877 5.12494" stroke="#0D53BB" stroke-width="2" stroke-linecap="round" stroke-linejoin="round"/>
</svg>
